<?xml version="1.0" encoding="UTF-8"?>
<svg width="110px" height="110px" viewBox="0 0 110 110" version="1.1" xmlns="http://www.w3.org/2000/svg" xmlns:xlink="http://www.w3.org/1999/xlink">
    <!-- Generator: Sketch 49.1 (51147) - http://www.bohemiancoding.com/sketch -->
    <title>iPhone 8</title>
    <desc>Created with Sketch.</desc>
    <defs>
        <circle id="path-1" cx="71" cy="68" r="50"></circle>
        <filter x="-4.0%" y="-4.0%" width="108.0%" height="108.0%" filterUnits="objectBoundingBox" id="filter-2">
            <feGaussianBlur stdDeviation="1.5" in="SourceAlpha" result="shadowBlurInner1"></feGaussianBlur>
            <feOffset dx="0" dy="1" in="shadowBlurInner1" result="shadowOffsetInner1"></feOffset>
            <feComposite in="shadowOffsetInner1" in2="SourceAlpha" operator="arithmetic" k2="-1" k3="1" result="shadowInnerInner1"></feComposite>
            <feColorMatrix values="0 0 0 0 0   0 0 0 0 0   0 0 0 0 0  0 0 0 0.5 0" type="matrix" in="shadowInnerInner1"></feColorMatrix>
        </filter>
        <filter x="-2.3%" y="-1.1%" width="104.7%" height="104.3%" filterUnits="objectBoundingBox" id="filter-3">
            <feOffset dx="0" dy="1" in="SourceAlpha" result="shadowOffsetOuter1"></feOffset>
            <feGaussianBlur stdDeviation="0.5" in="shadowOffsetOuter1" result="shadowBlurOuter1"></feGaussianBlur>
            <feColorMatrix values="0 0 0 0 0   0 0 0 0 0   0 0 0 0 0  0 0 0 0.5 0" type="matrix" in="shadowBlurOuter1" result="shadowMatrixOuter1"></feColorMatrix>
            <feMerge>
                <feMergeNode in="shadowMatrixOuter1"></feMergeNode>
                <feMergeNode in="SourceGraphic"></feMergeNode>
            </feMerge>
        </filter>
    </defs>
    <g id="Images" stroke="none" stroke-width="1" fill="none" fill-rule="evenodd">
        <g id="iPhone-8" transform="translate(-16.000000, -13.000000)">
            <g id="Oval" opacity="0.695086051">
                <use fill="#E6F7FB" fill-rule="evenodd" xlink:href="#path-1"></use>
                <use fill="black" fill-opacity="1" filter="url(#filter-2)" xlink:href="#path-1"></use>
                <use stroke="#99E1F1" stroke-width="4" xlink:href="#path-1"></use>
            </g>
            <g id="summit" filter="url(#filter-3)" transform="translate(28.000000, 16.000000)">
                <g id="Group-2" transform="translate(43.560946, 21.227924) rotate(-18.000000) translate(-43.560946, -21.227924) translate(31.560946, 3.227924)">
                    <polyline id="Fill-386" fill="#D9D5E2" points="12.3737779 33.5 22.2307692 5.73262282 21.4729063 5.5 11.6153846 33.2673772 12.3737779 33.5"></polyline>
                    <polyline id="Fill-387" fill="#5F8C56" points="18.6923077 16 18.6923077 15.9989455 21.7956311 7.00527241 21.0075293 6.75641476 21.4415644 5.5 22.2307692 5.74938489 18.6923077 16"></polyline>
                    <polyline id="Fill-388" fill="#BDBACA" points="18.6931923 14.865125 18.6923077 14.865125 18.8975385 14.25 18.8975385 14.25175 18.6931923 14.865125"></polyline>
                    <polyline id="Fill-389" fill="#5F8C56" points="18.6923077 14.25 18.6923077 14.2494792 20.4615385 10.75 18.6923077 14.25"></polyline>
                    <polyline id="Fill-390" fill="#BDBACA" points="16.9238228 16 16.9230769 16 17.8076923 14.25 17.8076923 14.2504872 16.9238228 16"></polyline>
                    <polyline id="Fill-391" fill="#A29CBA" points="17.6656051 14.25 16.9230769 14.207289 19.7796151 5.5 20.4615385 5.72651237 17.6656051 14.25"></polyline>
                    <path d="M11.6535737,3.65257386 C11.7966699,3.06596713 12.3650799,2.56017332 13.6643737,2.22693886 C17.6149224,1.21297439 22.2307692,3.92543631 22.2307692,3.92543631 L18.6702571,14.25 C18.6702571,14.25 15.4247553,12.3428151 12.0475852,12.3252264 L13.5312147,8.02312676 C13.6007754,7.86245166 13.5833852,7.67990954 13.4666227,7.47645112 C12.8356081,6.3869028 11.3634064,4.8547849 11.65258,3.65637682 L11.6535737,3.65257386" id="Fill-392" fill="#AC373C"></path>
                    <path d="M13.3456749,8.0820107 C13.0925723,8.69384753 11.615511,8.98455194 9.84615385,9 L11.4639327,3.75 C11.1900531,4.93060633 12.6845861,6.47073116 13.2842881,7.54366919 C13.3952566,7.74402586 13.4117838,7.92378511 13.3456749,8.0820107" id="Fill-393" fill="#AC373C"></path>
                    <path d="M8.70672514,9.67441914 C7.25943957,9.68946115 5.62329253,9.51518133 4.27435192,9.18062631 L1.81817425,20.6649403 C4.83995778,21.1893359 8.58538409,20.9943085 8.85204083,19.840742 L10.8717821,13.3514121 L12.4335589,8.69098301 C12.1703271,9.36994814 10.5400514,9.65730237 8.70672514,9.67441914" id="Fill-394" fill="#DD4244"></path>
                    <path d="M18.5221187,14.25 L22.2307692,3.95171733 C22.2307692,3.95171733 17.3176484,1.21271652 13.2021591,2.2241931 C11.8486181,2.55660992 11.2564763,3.0611627 11.1074056,3.64633012 L11.1063704,3.65012375 C10.8051234,4.84559138 12.3387915,6.37395005 12.9961517,7.46082502 C13.1177892,7.66378422 13.1359055,7.84587846 13.0634406,8.00615933 C12.7860035,8.62594362 11.1669303,8.92042414 9.2274588,8.93607286 C7.69637878,8.94982477 5.96550265,8.79049232 4.53846154,8.4846309" id="Stroke-395" stroke="#E77C59" stroke-width="0.97"></path>
                    <path d="M14.8149686,0.739926489 C14.0106079,0.739926489 13.2460722,0.832580696 12.5428461,1.01485127 C10.8848674,1.44419972 9.89919806,2.2158118 9.61465874,3.30892892 L9.61203867,3.31551091 L9.59998636,3.36107856 C9.54915705,3.57575278 9.52714849,3.80004685 9.53396066,4.0309229 L8.23440721,8.14011165 C6.89240867,8.11327737 5.4911966,7.95277801 4.3331268,7.69051091 L3.46431243,7.49355743 L3.25889915,8.33250837 L3.14152012,8.81046231 L2.88108542,9.8737073 L2.89366174,9.8737073 L0.357960478,20.68539 L1.29542061,20.833738 C2.43986606,21.0144896 3.71217081,21.1147384 4.87810082,21.1147384 C7.84506519,21.1147384 9.51090407,20.5451429 9.83055229,19.4216474 L11.7730703,13.7332866 C13.5746287,13.8715085 15.3038732,14.5124933 16.3733847,14.988422 L9.5549212,34.9612261 L10.4043471,35.2321004 L11.1526383,35.4700648 L12.0015402,35.7399265 L12.2818874,34.9202152 L18.7434977,15.9985048 L19.0385173,16.0921716 L23.3579605,3.4420877 L22.5803245,2.98387974 C22.5714162,2.97831036 21.2545703,2.19809105 19.3529254,1.5560936 C17.7499681,1.01434496 16.2229928,0.739926489 14.8149686,0.739926489 Z M14.8149686,1.60419278 C16.384913,1.60419278 17.9118883,1.98442944 19.0579058,2.3717544 C20.8274993,2.96919683 22.0625991,3.6901782 22.1144765,3.72106293 L22.2863529,3.82232436 L18.4689146,15.0025986 L18.173895,14.9094381 L18.1031532,15.1160114 L11.4329855,34.6493409 L10.6841703,34.4108702 L17.2867402,15.0709501 L17.4675249,14.5433781 C16.307359,13.9616312 13.7590814,12.8563627 11.1358699,12.8421861 L8.97274222,19.1765947 C8.7856694,19.9147905 6.99878341,20.2509785 4.87810082,20.2509785 C3.76247611,20.2509785 2.55462502,20.1578179 1.43952432,19.9811167 L4.01295455,9.00944101 L4.01138251,9.00944101 L4.12876154,8.53148707 C5.47652423,8.83679028 7.10777821,9.00792209 8.63213345,9.00792209 C8.69291901,9.00792209 8.75370458,9.00792209 8.81449014,9.00741578 L8.89571223,9.00539056 L10.4352639,4.13623479 C10.4169234,3.938775 10.4268796,3.74384675 10.4719448,3.55398158 L10.4766609,3.53777975 C10.672642,2.75047214 11.4240773,2.19859736 12.7744601,1.84924543 C13.4441493,1.67558208 14.1337511,1.60419278 14.8149686,1.60419278 Z" id="Fill-396" fill="#FFFFFE"></path>
                </g>
                <path d="M43.1496432,56.6521394 C46.9105211,59.6848258 48.1638401,56.6521394 48.1638401,56.6521394 C48.1638401,56.6521394 51.715678,53.1382772 53.387077,55.2952041 C54.4405648,56.6541074 58.3285243,57.2317151 61,56.6826433 C53.6771545,42.7128025 48.3728801,32 48.3728801,32 C48.3728801,32 42.8208887,44.1159858 37,55.1613801 C38.7699332,54.9183322 41.1365973,55.0295242 43.1496432,56.6521394" id="Fill-403" fill="#FFFFFF"></path>
                <path d="M66.0096038,69.1478496 C64.0008362,65.6339621 62.0674893,62.2040903 60.2564712,58.9588683 C57.5882318,59.4740415 53.7049823,58.9320941 52.6527706,57.6570866 C50.9833964,55.6333237 47.4358613,58.9302476 47.4358613,58.9302476 C47.4358613,58.9302476 46.1840606,61.7757025 42.4277387,58.9302476 C40.4171315,57.4078092 38.0533344,57.303482 36.2855453,57.5315246 C32.9394388,63.4966395 29.5031953,69.1303079 26.9848776,72.0680877 C19.2634471,81.0734632 8,93 8,93 L85,93 C85,93 69.7659257,75.7186162 66.0096038,69.1478496" id="Fill-404" fill="#4B9AB7"></path>
                <path d="M22.0703807,64.5794775 C27.6506856,67.6083826 26.6167897,65.0204816 28.2701122,63.9078226 C29.3386231,63.1872698 32.7290728,64.1560028 35,64.9319118 C29.3914565,55.267647 24.5499089,45 24.5499089,45 C24.5499089,45 19.4469268,55.8765649 16,64.2353466 C16.3789433,63.5397041 17.7134433,62.215769 22.0703807,64.5794775" id="Fill-405" fill="#FFFFFF"></path>
                <path d="M45.9756746,82.2150523 C42.6830434,80.2079815 38.1759685,73.5886709 34.0823784,66.6466197 C31.8463311,65.8947504 28.5079564,64.9560314 27.4558571,65.6542596 C25.8279286,66.7324455 26.8459445,69.2401665 21.3513493,66.3051048 C17.0613315,64.0146302 15.7473285,65.2975463 15.3742055,65.971636 C14.6145055,67.7864929 13.9355293,69.4797634 13.4135158,70.9030403 C10.5648651,78.6827865 1,94 1,94 L59,94 C59,94 53.708111,86.9301042 45.9756746,82.2150523" id="Fill-406" fill="#1D7DA2"></path>
                <path d="M62,90 L20,90 C20,90 29.2382803,68.2126027 47.2182251,73.9680863 C56.5925044,76.9700403 62,90 62,90" id="Fill-407" fill="#879A45"></path>
                <path d="M0,94 C0,94 6.54326348,80.0692407 22.695509,79.0471887 C38.8486556,78.0233324 55,94 55,94 L0,94" id="Fill-408" fill="#5B7F3B"></path>
                <path d="M86,94 L28,94 C28,94 40.7567576,69.6483977 65.58705,76.0823679 C78.5326514,79.4358311 86,94 86,94" id="Fill-409" fill="#4A6B34"></path>
            </g>
        </g>
    </g>
</svg>