<?xml version="1.0" encoding="UTF-8"?>
<svg width="110px" height="110px" viewBox="0 0 110 110" version="1.1" xmlns="http://www.w3.org/2000/svg" xmlns:xlink="http://www.w3.org/1999/xlink">
    <!-- Generator: Sketch 49.1 (51147) - http://www.bohemiancoding.com/sketch -->
    <title>iPhone 8</title>
    <desc>Created with Sketch.</desc>
    <defs>
        <circle id="path-1" cx="238" cy="68" r="50"></circle>
        <filter x="-4.0%" y="-4.0%" width="108.0%" height="108.0%" filterUnits="objectBoundingBox" id="filter-2">
            <feGaussianBlur stdDeviation="1.5" in="SourceAlpha" result="shadowBlurInner1"></feGaussianBlur>
            <feOffset dx="0" dy="1" in="shadowBlurInner1" result="shadowOffsetInner1"></feOffset>
            <feComposite in="shadowOffsetInner1" in2="SourceAlpha" operator="arithmetic" k2="-1" k3="1" result="shadowInnerInner1"></feComposite>
            <feColorMatrix values="0 0 0 0 0   0 0 0 0 0   0 0 0 0 0  0 0 0 0.5 0" type="matrix" in="shadowInnerInner1"></feColorMatrix>
        </filter>
        <filter x="-3.2%" y="-1.2%" width="106.5%" height="104.7%" filterUnits="objectBoundingBox" id="filter-3">
            <feOffset dx="0" dy="1" in="SourceAlpha" result="shadowOffsetOuter1"></feOffset>
            <feGaussianBlur stdDeviation="0.5" in="shadowOffsetOuter1" result="shadowBlurOuter1"></feGaussianBlur>
            <feColorMatrix values="0 0 0 0 0   0 0 0 0 0   0 0 0 0 0  0 0 0 0.5 0" type="matrix" in="shadowBlurOuter1" result="shadowMatrixOuter1"></feColorMatrix>
            <feMerge>
                <feMergeNode in="shadowMatrixOuter1"></feMergeNode>
                <feMergeNode in="SourceGraphic"></feMergeNode>
            </feMerge>
        </filter>
    </defs>
    <g id="Images" stroke="none" stroke-width="1" fill="none" fill-rule="evenodd">
        <g id="iPhone-8" transform="translate(-183.000000, -13.000000)">
            <g id="Oval" opacity="0.69774683">
                <use fill="#E6F7FB" fill-rule="evenodd" xlink:href="#path-1"></use>
                <use fill="black" fill-opacity="1" filter="url(#filter-2)" xlink:href="#path-1"></use>
                <use stroke="#99E1F1" stroke-width="4" xlink:href="#path-1"></use>
            </g>
            <g id="fire" filter="url(#filter-3)" transform="translate(207.000000, 35.000000)">
                <path d="M9.53033439,77.7406365 C8.03376281,76.3914412 6.66086003,74.9055274 5.44209515,73.3026833 C0.384220919,66.6556475 -2.16801611,54.7773315 2.32528321,47.1444837 C5.69839423,41.4149007 4.4007681,33.8612056 4.4007681,33.8612056 C4.4007681,33.8612056 8.47287663,38.9449737 8.21299294,45.7179344 C7.95310925,52.4908951 14.400017,55.7397576 14.400017,55.7397576 C14.400017,55.7397576 9.962279,42.9403909 14.1114565,35.3848969 C18.2660109,27.8330008 12.2241632,17.9353036 12.2241632,17.9353036 C12.2241632,17.9353036 14.5326473,18.3328665 18.1674343,22.4488118 C19.9758663,24.4959909 23.8024295,39.8138556 23.8024295,39.8138556 C23.8024295,39.8138556 20.515349,21.234536 28.8208731,12.6716428 C33.1905037,8.16892816 28.5556125,0.0395763972 28.5341049,0 C29.5324167,1.74855718 36.3557077,7.70840281 38.148009,11.1623429 C39.7341957,14.2115244 37.5673034,19.5723273 36.3342001,24.8377871 C34.7766903,31.4776272 38.7394685,36.6873202 40.2252862,41.1162788 C44.0339265,39.0475126 45.084215,30.9739276 44.8099929,27.136816 C44.4640788,22.2761148 43.0123147,17.4136148 43.0123147,17.4136148 C47.2188458,22.443415 53.3556855,30.4828205 52.3681274,37.3978964 C51.7193144,41.9491821 47.7798361,44.5720178 46.7922781,49.0441507 C46.2922261,51.3107989 46.2169494,54.0955381 47.2206381,56.2614464 C47.2206381,56.2614464 47.0682925,49.7115527 51.7318605,48.148285 C56.3918438,46.5868162 56.3255287,39.8138556 56.3255287,39.8138556 C56.3291133,40.2294077 57.0729183,41.0982895 57.2664869,41.458075 C58.1196223,43.037533 58.8777657,44.6745567 59.5409172,46.34576 C61.2328496,50.6164131 62.3369072,55.1551062 61.9067549,59.7639576 C61.1880421,67.5299261 56.029799,74.396431 50.0148359,79.1024244 C43.8475271,83.9235491 35.9076324,86.5301946 28.0842373,85.9095647 C21.2143465,85.3680876 14.64377,82.3548847 9.53033439,77.7406365" id="Fill-311" fill="#E98F2E"></path>
                <path d="M30.5917403,77 C30.5917403,77 23.7137459,75.7910346 20.9880559,72.4035544 C18.2605439,69.0177722 18,63.934005 18,63.934005 C18,63.934005 25.0128214,64.9035544 26.9587017,68.1704777 C28.904582,71.434005 22.092179,61.0321485 26.1479182,54.6205569 C30.2018355,48.2106633 31.2986706,47 31.2986706,47 C31.2986706,47 36.2854444,53.7868463 36.5642081,56.434005 C37.0834739,61.3955173 35.5238545,67.9276658 35.5238545,67.9276658 C35.5238545,67.9276658 38.5119104,64.9035544 40.5871516,64.5418836 C42.6642149,64.1768168 45,64.2990718 45,64.2990718 C45,64.2990718 44.2238343,70.7106633 40.9752345,73.4919629 C37.7302787,76.2749604 30.5917403,77 30.5917403,77" id="Fill-312" fill="#F8D81F"></path>
            </g>
        </g>
    </g>
</svg>