<?xml version="1.0" encoding="UTF-8"?>
<svg width="110px" height="110px" viewBox="0 0 110 110" version="1.1" xmlns="http://www.w3.org/2000/svg" xmlns:xlink="http://www.w3.org/1999/xlink">
    <!-- Generator: Sketch 49.1 (51147) - http://www.bohemiancoding.com/sketch -->
    <title>iPhone 8</title>
    <desc>Created with Sketch.</desc>
    <defs>
        <circle id="path-1" cx="71" cy="225" r="50"></circle>
        <filter x="-4.0%" y="-4.0%" width="108.0%" height="108.0%" filterUnits="objectBoundingBox" id="filter-2">
            <feGaussianBlur stdDeviation="1.5" in="SourceAlpha" result="shadowBlurInner1"></feGaussianBlur>
            <feOffset dx="0" dy="1" in="shadowBlurInner1" result="shadowOffsetInner1"></feOffset>
            <feComposite in="shadowOffsetInner1" in2="SourceAlpha" operator="arithmetic" k2="-1" k3="1" result="shadowInnerInner1"></feComposite>
            <feColorMatrix values="0 0 0 0 0   0 0 0 0 0   0 0 0 0 0  0 0 0 0.5 0" type="matrix" in="shadowInnerInner1"></feColorMatrix>
        </filter>
        <filter x="-1.9%" y="-1.8%" width="103.8%" height="107.3%" filterUnits="objectBoundingBox" id="filter-3">
            <feOffset dx="0" dy="1" in="SourceAlpha" result="shadowOffsetOuter1"></feOffset>
            <feGaussianBlur stdDeviation="0.5" in="shadowOffsetOuter1" result="shadowBlurOuter1"></feGaussianBlur>
            <feColorMatrix values="0 0 0 0 0   0 0 0 0 0   0 0 0 0 0  0 0 0 0.5 0" type="matrix" in="shadowBlurOuter1" result="shadowMatrixOuter1"></feColorMatrix>
            <feMerge>
                <feMergeNode in="shadowMatrixOuter1"></feMergeNode>
                <feMergeNode in="SourceGraphic"></feMergeNode>
            </feMerge>
        </filter>
    </defs>
    <g id="Images" stroke="none" stroke-width="1" fill="none" fill-rule="evenodd">
        <g id="iPhone-8" transform="translate(-16.000000, -170.000000)">
            <g id="Oval" opacity="0.698596014">
                <use fill="#E6F7FB" fill-rule="evenodd" xlink:href="#path-1"></use>
                <use fill="black" fill-opacity="1" filter="url(#filter-2)" xlink:href="#path-1"></use>
                <use stroke="#99E1F1" stroke-width="4" xlink:href="#path-1"></use>
            </g>
            <g id="Group-Copy" filter="url(#filter-3)" transform="translate(17.000000, 199.000000)">
                <path d="M47.71606,54 C41.591183,52.1925256 35.4672282,50.3782013 29.351574,48.566617 C23.2359198,46.7568593 17.1151931,44.9457316 11,43.1318639 C14.1675787,36.7824138 17.3453025,30.4265704 20.5179538,24.0716403 C23.6859936,17.7212768 26.8618728,11.3608667 30.0395967,5 C34.3637174,6.31382106 38.6882993,7.62490214 43.0128812,8.9350699 C47.3416134,10.2466076 51.6712678,11.5563187 56,12.8646598 C54.6147319,19.7205499 53.2359198,26.5805499 51.8557243,33.4400932 C50.4773733,40.2918733 49.0925664,47.1500466 47.71606,54" id="Fill-368" fill="#717141"></path>
                <path d="M75.057109,40.2929355 C71.2483127,42.8282578 50.8039012,51.4707064 47,54 C48.3332344,47.0432834 49.6633539,40.0791467 50.9948083,33.1210388 C52.3275977,26.1582934 54.9918416,12.2253826 54.9918416,12.2253826 C54.9918416,12.2253826 74.1995847,2.28536095 77,0 C76.6751465,6.71927655 76.3489579,13.4376256 76.0263295,20.1522646 C75.7023659,26.8655124 75.3792924,33.584789 75.057109,40.2929355" id="Fill-369" fill="#727241"></path>
                <path d="M96.870106,10.3995301 C96.870106,10.3995301 99.9188501,25.2751227 101.440188,32.7083036 C102.960592,40.1345613 106,55 106,55 L75,40.1036378 C75,40.1036378 75.6740754,26.7414509 76.0143808,20.0605883 C76.3528189,13.379264 77.0348301,0 77.0348301,0 L96.870106,10.3995301" id="Fill-370" fill="#727241"></path>
                <path d="M19,46.1707655 C19.4056263,46.2979108 33.9515412,37.2235702 33.9515412,37.2235702 L35.7195377,29.0368482 L51.5652064,29.0368482 L57.9654458,34.1533695 L63.4163079,31.8498794 L67.8362992,26.3845479 L76.5607173,22.0332977 L88.6084164,24.4624938 L95.6804024,15 L98.2665577,15 L99,18.7721391 L96.7108129,18.7188819 L92.1444094,29.0368482 L76.2987408,27.49671 L69.8156265,30.1120661 L67.0991736,37.8377063 L57.9654458,43.5175056 L50.304588,35.3806821 L38.9608647,35.8412842 L38.9608647,41.6760569 L31.2894173,50 L19,46.1707655" id="Fill-371" fill="#C69958"></path>
                <path d="M20,44.0831392 C20.4025314,44.1994868 34.1118996,36.2515705 34.1118996,36.2515705 L35.3007607,29.8343115 L49.6274047,29.2680567 L57.3051992,34.5523638 L62.6861434,31.6268617 L66.7795355,26.1952399 L74.664307,22.5013124 L88.1219218,24.2673194 L94.2617816,16.0570679 L96.5499507,16 L97,17.0957914 L94.847074,17.1895774 L89.018822,25.5931519 L74.9658628,25.1697879 L67.0714964,26.9433155 L64.2460095,32.9482703 L56.6445178,37.5720943 L49.1421739,31.4322116 L36.9574902,32.0042174 L36.0802369,37.1000678 L26.6881431,46 L20,44.0831392" id="Fill-372" fill="#65C2E3"></path>
                <path d="M53.8759142,18.0293978 C53.6780508,19.0422001 53.463969,20.1465149 53.2396929,21.2982456 L65.2190036,11.4722617 L75.847097,9.95685159 L77.1978509,13.6021811 L84.7894124,9.2972973 L95,9.2972973 L77.8697525,0.000474158369 L77.8702159,0 L77.8688258,0.000474158369 L77.8669722,0 L77.8669722,0.000948316738 C74.9430418,2.34186818 54.9611512,12.4964438 54.9532737,12.4997629 C50.6035217,11.1412992 46.2533063,9.78188715 41.904481,8.42057847 C37.5588994,7.06021811 33.2133178,5.69890944 28.8681996,4.33475581 C26.2436129,9.76434329 23.6204163,15.1925083 21,20.6145092 L32.3458697,24 L45.6495216,18.5964912 L53.2392295,21.2982456 C53.4519212,20.2081555 53.663686,19.1185396 53.8759142,18.0293978" id="Fill-373" fill="#5F613A"></path>
                <polyline id="Fill-374" fill="#5F613A" points="39 51.1563669 44.2925474 44 48.9824347 44 58 48.0927481 47.2541666 54 39 51.1563669"></polyline>
                <path d="M82,41.8686097 C82.213677,41.9803616 90.6957051,36 90.6957051,36 L101.896514,37.3410224 L105,54 L82,41.8686097" id="Fill-375" fill="#5F613A"></path>
                <path d="M77.513007,0 L77.5116296,0.000461544917 L77.5097929,0 L77.5097929,0.000923089833 C74.6125149,2.27957034 54.8127646,12.1640163 54.8049589,12.1672471 C50.494856,10.8449209 46.184294,9.52167163 41.8751094,8.19657618 C37.5691389,6.87240381 33.2631685,5.54730835 28.9576572,4.21944363 C25.7936091,10.6483028 22.6313977,17.0767004 19.476992,23.494944 C16.3179946,29.917803 13.1539466,36.3415852 10,42.7589057 C16.0888755,44.5921621 22.1832609,46.4226493 28.2725955,48.2517518 C34.3619302,50.0827005 40.4595297,51.9164184 46.5580474,53.7432132 L46.5589657,53.7432132 C50.4838363,51.2259472 71.5784082,42.6245961 75.5083294,40.1013301 L75.5083294,40.1036378 L106,55 C106,55 103.010431,40.1345613 101.514958,32.7083036 C100.018567,25.2751227 97.0198155,10.3995301 97.0198155,10.3995301 L77.5125479,0.000461544917 L77.513007,0 M77.5929003,1.26924852 L96.0647698,11.1163093 C96.5996872,13.7706541 99.1255076,26.300214 100.458898,32.9233835 C101.605412,38.6160785 103.629834,48.6809885 104.512792,53.0688961 L76.0427877,39.1607015 L76.0257989,39.1514706 C75.8641757,39.0623925 75.6864821,39.0180842 75.5083294,39.0180842 C75.3067596,39.0180842 75.1047307,39.0753157 74.9284146,39.1883942 C73.0302613,40.4077959 66.6961962,43.2227584 60.5715065,45.9454118 C54.5166086,48.6366802 48.7762329,51.187639 46.4092807,52.5685814 C40.9140947,50.9222507 35.419827,49.2703814 29.9319874,47.6203583 L28.5811488,47.2141988 L27.5209562,46.8952713 C22.1919848,45.295095 16.8593402,43.6935342 11.5308281,42.089204 C13.2361356,38.6211555 14.943739,35.1503378 16.6518015,31.67952 L20.4425983,23.9744892 C23.462012,17.8313263 26.4892313,11.6780095 29.517369,5.5251542 C33.5313159,6.76255612 37.545722,7.99765032 41.5596688,9.23182142 C45.8693126,10.5569169 50.1803337,11.8806277 54.4904366,13.2029539 C54.5932877,13.2348005 54.6993529,13.2500315 54.8049589,13.2500315 C54.9450017,13.2500315 55.0845853,13.2228003 55.215904,13.168338 C55.362375,13.1074141 73.1923436,4.21482818 77.5929003,1.26924852" id="Fill-376" fill="#FFFFFE"></path>
                <path d="M32.2759065,7 C32.2630523,7.04710005 32.0004591,8.02920603 32,9.53920563 C32,9.58397399 32.0004591,9.62874236 32.0009182,9.67444339 L33.469512,9.65858793 L33.4690529,9.53920563 C33.4685938,8.87280988 33.5273559,8.3253301 33.5847408,7.94992872 C33.6136628,7.76246119 33.6421257,7.61789669 33.6623252,7.52323025 C33.6724249,7.4761302 33.6806883,7.44115492 33.6857382,7.41970341 L33.6912471,7.39731923 L33.6921653,7.39405487 L33.4061591,7.31571023 L33.6917062,7.39592022 L33.6921653,7.39405487 L33.4061591,7.31571023 L33.6917062,7.39592022 L32.2759065,7 M32.296106,12.2947917 C32.4691788,13.0889638 32.7331492,13.9335003 33.1233664,14.7971567 L34.4583682,14.175063 C34.1149771,13.4149334 33.8826831,12.6720584 33.7302689,11.9720864 L32.296106,12.2947917 M34.4445958,17.0649541 C34.9252516,17.7257538 35.4945096,18.3804911 36.1661422,19.0156423 L37.1669345,17.9234807 C36.5609501,17.3503524 36.0527497,16.7650993 35.6258062,16.1784472 L34.4445958,17.0649541 M38.1718585,20.628236 C38.5382035,20.8800581 38.9247481,21.1262841 39.3333284,21.365515 C39.6808512,21.5693044 40.0361784,21.7544402 40.3965554,21.9232542 L41.0108032,20.5680786 C40.6889888,20.4174517 40.3740606,20.2528347 40.0673958,20.0732949 C39.6886556,19.8508521 39.331033,19.6237459 38.9945281,19.3924427 L38.1718585,20.628236 M42.8136065,22.8046314 C43.6468349,23.0336029 44.4851133,23.1972873 45.3059466,23.3101408 L45.5038096,21.8318522 C44.7371476,21.7259936 43.960845,21.5744341 43.1978557,21.3645824 L42.8136065,22.8046314 M47.8212406,23.5190599 C48.1173465,23.5288529 48.4079435,23.53305 48.6911953,23.53305 C49.2733075,23.53305 49.8242024,23.5148628 50.3328619,23.4859499 L50.2506868,21.9960028 C49.7668175,22.0235167 49.2430083,22.0407712 48.6911953,22.0407712 C48.4226341,22.0407712 48.1476457,22.0370405 47.8671485,22.0277137 L47.8212406,23.5190599 M52.8334654,23.2350606 C53.3747196,23.1553169 53.6882705,23.0909624 53.7002066,23.0886307 L53.5537604,22.3574141 L53.5096888,23.1021545 L53.5326427,23.1035535 C53.650167,23.1114812 54.2065708,23.1515862 55.0820345,23.2551131 L55.2523528,21.7730937 C54.219884,21.6509134 53.6093089,21.6136064 53.597832,21.6126737 L53.5014254,21.6070777 L53.4068551,21.6266638 L53.3976735,21.6285292 C53.3439613,21.6392549 53.0689729,21.6928837 52.6236663,21.7581709 L52.8334654,23.2350606 M57.4775088,23.5978708 C58.2028537,23.7191185 59.0025694,23.86788 59.8550791,24.0502178 L60.1576122,22.5901163 C59.2816894,22.4031151 58.460397,22.2501566 57.7153118,22.1256445 L57.4775088,23.5978708 M62.2074001,24.6116877 C62.962126,24.81128 63.7388877,25.0360545 64.5257492,25.2892756 L64.9692195,23.866481 C64.1557315,23.6053322 63.3546385,23.3730963 62.5774178,23.167908 L62.2074001,24.6116877 M66.7977313,26.0941735 C67.5382257,26.3823698 68.277802,26.6976137 69.0068195,27.0417705 L69.6256581,25.6889265 C68.8635869,25.3289142 68.0932523,25.0006129 67.3233767,24.7007581 L66.7977313,26.0941735 M71.1309782,28.1516528 C71.8232694,28.5517701 72.494902,28.9817329 73.1380717,29.4443393 L73.9869088,28.2267331 C73.3005857,27.7333484 72.587636,27.2768044 71.8572412,26.8547693 L71.1309782,28.1516528 M74.9821922,30.9403488 C75.341192,31.2700492 75.6850422,31.6132733 76.0128246,31.9700212 L76.0137428,31.9709539 C76.0229243,31.9812133 76.2639408,32.2418957 76.7170518,32.6765219 L77.7251894,31.5913554 C77.5107995,31.3857008 77.3487446,31.2234155 77.2413201,31.1133599 C77.1876078,31.0583321 77.1472089,31.0163618 77.1215004,30.9888479 L77.0930375,30.9590023 L77.0856923,30.9510746 L77.0866104,30.9524736 C76.729447,30.5630821 76.3557566,30.1904787 75.9673758,29.8337308 L74.9821922,30.9403488 M78.6034076,34.3506722 C79.1772563,34.8254034 79.8406255,35.3463019 80.5875471,35.888652 L81.4418932,34.6747765 C80.7220573,34.1520126 80.0830193,33.6502338 79.5307472,33.1936898 L78.6034076,34.3506722 M82.6598298,37.2988555 C83.3337579,37.7274193 84.0535938,38.1564494 84.815665,38.5756865 L85.5148423,37.2634139 C84.781234,36.8604986 84.0884838,36.4468576 83.439346,36.0341492 L82.6598298,37.2988555 M87.0500026,39.7088857 C87.7886607,40.0521098 88.5585363,40.3804112 89.3577929,40.6849293 L89.8737977,39.2877833 C89.108513,38.9963226 88.370773,38.6820114 87.6619549,38.352311 L87.0500026,39.7088857 M91.7321496,41.4893609 C92.3656787,41.6772947 93.0148164,41.8489068 93.6781856,42 L94,40.5445618 C93.3678482,40.3999973 92.7490096,40.2367793 92.1439435,40.0572396 L91.7321496,41.4893609" id="Fill-377" fill="#E4DC4A"></path>
                <path d="M56.0073263,48 L48.0004569,44.8072927 L48,44.8072927 C48.6241374,41.6298814 49.2482748,38.4515431 49.8724122,35.2745954 L57.4356231,43.0945962 L66.4997794,37.6074781 L69.1955412,30.1439221 L75.6283599,27.6177527 C75.5922641,28.3501101 75.5561683,29.0861756 75.5200725,29.8148248 C75.3153773,29.6090231 75.1056562,29.4078566 74.8918229,29.2113253 L73.9112967,30.3112519 C74.2685993,30.6389586 74.610824,30.9801074 74.9370569,31.3346981 L74.9379707,31.3356252 C74.9457381,31.3439685 75.1102253,31.5219591 75.4209233,31.8269535 C75.266945,34.9505968 75.1307862,37.7252115 75.0585946,39.1862181 C75.0407752,39.1852911 75.0229557,39.1848275 75.0051363,39.1848275 C74.8045533,39.1848275 74.6035135,39.2423037 74.4280605,39.3558654 C72.5391996,40.5804782 66.2361431,43.4074704 60.1414369,46.141759 C58.7332441,46.7730696 57.3424137,47.396964 56.0073263,48 M57.4356231,34.0481285 L51.0850481,29.1061068 C51.4930676,27.0304763 51.9394675,24.7583143 52.3689617,22.5732937 C52.4809044,22.5538259 52.5681739,22.5380664 52.6289428,22.5264784 C52.8263274,22.5408475 53.3449189,22.582564 54.1052151,22.6724864 L54.2747282,21.1994283 C53.3956357,21.0956004 52.8235859,21.0534204 52.6696077,21.0427595 C52.6842288,20.9685967 52.6988499,20.8939704 52.7134709,20.8202712 L64.5254766,11.2148017 L75.0051363,9.73340029 L76.3370254,13.2969215 C76.2122893,15.8142841 76.0916654,18.248677 75.9979991,20.146317 C75.9646447,20.8170265 75.928092,21.5544826 75.8892548,22.3392174 L68.1108398,26.1159566 L68.5800851,25.0915833 C67.8216165,24.7337479 67.0549236,24.4074317 66.2886876,24.1093901 L65.765527,25.4943799 C66.4143375,25.7465333 67.0622341,26.019545 67.7023633,26.314342 L67.2312904,26.542856 L62.8449661,31.8227819 L57.4356231,34.0481285 M61.5651646,22.5858086 L61.1968962,24.0208583 C61.9480542,24.2192437 62.7211438,24.442659 63.5042855,24.694349 L63.9456594,23.2801576 C63.136017,23.0205879 62.3387112,22.7897563 61.5651646,22.5858086 M56.7260438,21.5498474 L56.4893651,23.0131716 C57.2112809,23.1336861 58.007216,23.2815481 58.8556956,23.4627834 L59.1567985,22.0115107 C58.2850165,21.8256402 57.4676067,21.6736066 56.7260438,21.5498474 M54.4031196,12.2192437 C54.4031196,12.2192437 60.5133606,9.14102515 66.4275878,6.0173819 C60.5156452,9.14009811 54.4072318,12.2173896 54.4031196,12.2192437 M76.9995431,0.000463517324 L77,0 C77,0.000463517324 77,0.000463517324 77,0.000927034648" id="Fill-378" fill="#696843"></path>
                <path d="M76,39 C76.0563682,37.5327986 76.1626828,34.7464194 76.2829112,31.6095317 C76.2832679,31.6095317 76.2836247,31.6099971 76.2836247,31.6099971 C76.1890831,34.0742624 76.0945416,36.5380622 76,39 M76.3613985,29.5902678 C76.3610417,29.5898023 76.360685,29.5893369 76.3603282,29.5888714 C76.3885123,28.8571326 76.4166964,28.1179461 76.4448805,27.3824835 L76.445594,27.382018 L76.4463075,27.382018 C76.4181234,28.1179461 76.3895826,28.8543397 76.3613985,29.5902678 M76.6500178,22.0820324 L76.6485908,22.0815669 C76.6789154,21.2935047 76.7074563,20.5529218 76.7334998,19.8793684 C76.8066357,17.9736823 76.9008205,15.5289673 76.9982162,13.000931 L77,13 C76.9115234,15.2920367 76.8230467,17.5840733 76.7352836,19.875179 C76.7067428,20.6106416 76.6785587,21.3465698 76.6500178,22.0820324" id="Fill-379" fill="#696843"></path>
                <path d="M56.5577838,40 L49,32.4646032 C49.1419967,31.7673858 49.2844499,31.0701684 49.4264466,30.3733977 L56.9235051,36.572424 L64.5196418,31.90406 L67.3431381,25.8412613 L69.7059443,25.3048372 C70.2136623,25.6027514 70.708596,25.9171915 71.1875494,26.2490509 L72.0317675,25.0828532 C71.9199052,25.0055831 71.8075863,24.9292063 71.6948108,24.8537228 L74.7872333,24.1515923 C74.771253,24.4633525 74.7552726,24.7746661 74.7392923,25.0859797 L74.7383791,25.0859797 L74.737466,25.0864264 L68.3092633,27.5206575 L65.6154359,34.7125821 L56.5577838,40 M57.5837211,33.5236053 L49.9113355,28.1883961 L49.871613,28.1901827 C49.9807358,27.6533119 50.094881,27.0945554 50.2117657,26.5206128 L56.5577838,31.2827728 L61.9632452,29.1384162 L66.346422,24.0506499 L66.8171569,23.8304525 C66.9043639,23.8693108 66.9915708,23.9086158 67.0787778,23.9479209 L67.2253402,23.6392871 L74.9981737,20 L75,20.0004466 C74.977171,20.452901 74.9538853,20.9040154 74.9305997,21.3564697 L67.0513829,25.0859797 L62.9608745,30.5699227 L57.5837211,33.5236053" id="Fill-380" fill="#AB8856"></path>
                <path d="M58.6428149,40 L51,33.4815511 C51.1387064,32.7789356 51.2913765,32.0072798 51.4538212,31.1858397 L51.494316,31.183961 L59.3158667,36.7940822 L64.7975617,33.6882027 L68.967597,27.9216837 L77,24 C76.9511269,24.9797164 76.9022539,25.9599025 76.8538463,26.9391493 L73.7013015,27.6774591 C73.1120321,27.2716705 72.5050753,26.8921831 71.8855511,26.5366484 L71.1491971,27.8427804 C71.3256055,27.9437579 71.5006176,28.0470837 71.6737679,28.1518185 L69.2650244,28.7158834 L66.3866342,35.0910852 L58.6428149,40" id="Fill-381" fill="#57A7CB"></path>
                <path d="M52,21 C52.6005471,17.8543916 53.130799,15.0778691 53.4059051,13.6386605 C53.4714272,13.6522465 53.5382511,13.6590394 53.6046411,13.6590394 C53.7369871,13.6590394 53.8688992,13.6323203 53.9930007,13.5788821 C54.1296859,13.5200095 70.6169607,4.9821237 75,2 C74.8121121,5.88332737 74.6242241,9.76620188 74.437204,13.6486235 L74.4350344,13.6495293 L73.1701538,10.1678942 L63.2177342,11.6152544 L52,21" id="Fill-382" fill="#59593D"></path>
                <path d="M47,53 C47.5327004,50.0003593 48.0649214,47.0007186 48.5971423,44 L48.5976218,44 L57,47.7120958 C52.7436709,49.8424551 49.0296318,51.7486228 47,53" id="Fill-383" fill="#59593D"></path>
                <path d="M47,54 C47.091226,53.5251198 47.182452,53.0493121 47.273233,52.5744319 C49.1569384,51.497604 52.6039457,49.8573195 56.5542535,48.024115 C57.8545576,47.420776 59.2091523,46.7965682 60.5806571,46.1649405 C66.5165764,43.4292781 72.6554179,40.6008657 74.4950679,39.3756377 C74.6659497,39.2620189 74.8617518,39.2045138 75.057109,39.2045138 C75.0744641,39.2045138 75.0918193,39.2049776 75.1091745,39.2059051 C75.0918193,39.568094 75.0744641,39.9302829 75.057109,40.2929355 C71.2483127,42.8282578 50.8039012,51.4707064 47,54 M54.9918416,13.3133405 C54.9237558,13.3133405 54.8552251,13.3063843 54.7880294,13.2924718 C54.9175258,12.6135415 54.9918416,12.2253826 54.9918416,12.2253826 C54.9958466,12.2235276 60.9451161,9.14469006 66.7030334,6.02040501 C71.2910332,3.53145772 75.7584365,1.01329417 77,0 L76.999555,0.000463750193 C76.9777498,0.458648941 76.9559445,0.916370382 76.9336943,1.37409182 C72.4387006,4.42788684 55.5302974,13.1709692 55.3901209,13.2312568 C55.2628495,13.2859793 55.127568,13.3133405 54.9918416,13.3133405" id="Fill-384" fill="#D7D6D4"></path>
                <polyline id="Fill-386" fill="#D9D5E2" points="93.7144285 39 103 13.2160069 102.286071 13 93 38.7839931 93.7144285 39"></polyline>
                <polyline id="Fill-387" fill="#5F8C56" points="99 23 99 22.9989957 101.631079 14.4335928 100.962905 14.1965855 101.330892 13 102 13.2375094 99 23"></polyline>
                <polyline id="Fill-388" fill="#BDBACA" points="99.0005 20.3515 99 20.3515 99.116 20 99.116 20.001 99.0005 20.3515"></polyline>
                <polyline id="Fill-389" fill="#5F8C56" points="99 21 99 20.9995536 100 18 99 21"></polyline>
                <polyline id="Fill-390" fill="#BDBACA" points="97.0004216 21 97 21 97.5 20 97.5 20.0002784 97.0004216 21"></polyline>
                <polyline id="Fill-391" fill="#A29CBA" points="97.6295347 22 97 21.9560687 99.4218476 13 100 13.2329841 97.6295347 22"></polyline>
                <path d="M93.0359752,12.4839439 C93.170776,11.957195 93.7062347,11.5030128 94.9302071,11.2037818 C98.6517385,10.2932831 103,12.7289632 103,12.7289632 L99.6458943,22 C99.6458943,22 96.5885376,20.2874258 93.4071454,20.2716318 L94.8047675,16.408522 C94.8702956,16.2642423 94.8539136,16.1003269 94.7439199,15.9176296 C94.1494859,14.9392597 92.7626292,13.5634803 93.0350391,12.4873588 L93.0359752,12.4839439" id="Fill-392" fill="#AC373C"></path>
                <path d="M93.9669853,15.9508694 C93.7523983,16.6501115 92.5001071,16.9823451 91,17 L92.3715951,11 C92.1393928,12.3492644 93.4064969,14.109407 93.9149399,15.3356219 C94.0090219,15.564601 94.0230341,15.7700401 93.9669853,15.9508694" id="Fill-393" fill="#AC373C"></path>
                <path d="M91.4892146,16.8830855 C90.1258296,16.8965926 88.5845317,16.7400965 87.3137906,16.4396797 L85,26.752125 C87.8466077,27.2230107 91.3749078,27.0478841 91.6261062,26.0120285 L93.5287611,20.1848751 L95,16 C94.752028,16.609683 93.2162611,16.8677153 91.4892146,16.8830855" id="Fill-394" fill="#DD4244"></path>
                <path d="M99.6460899,22 L103,12.7525625 C103,12.7525625 98.5568298,10.2930516 94.8349961,11.2013163 C93.6109242,11.499813 93.075422,11.9528808 92.9406103,12.4783373 L92.9396741,12.4817438 C92.667242,13.5552249 94.0542114,14.9276286 94.6486937,15.903598 C94.7586964,16.0858471 94.7750797,16.2493603 94.7095462,16.3932859 C94.4586466,16.9498269 92.9944414,17.2142584 91.2404845,17.2283103 C89.8558556,17.240659 88.2905415,17.0975849 87,16.8229339" id="Stroke-395" stroke="#E77C59" stroke-width="0.97"></path>
                <path d="M96.5713114,10 C95.8718673,10 95.2070537,10.0820652 94.5955527,10.2435048 C93.1538321,10.6237849 92.2967283,11.3072127 92.0493028,12.2754022 L92.0470245,12.2812319 L92.0365442,12.3215918 C91.9923448,12.5117319 91.973207,12.7103923 91.9791306,12.9148825 L90.8490841,16.5544497 C89.6821289,16.5306822 88.4636836,16.3885256 87.4566664,16.1562319 L86.7011756,15.9817874 L86.5225554,16.7248582 L86.4204866,17.1481889 L86.1940217,18.0899201 L86.2049576,18.0899201 L84,27.6659819 L84.8151827,27.7973759 C85.8103527,27.9574702 86.9167046,28.046262 87.9305568,28.046262 C90.5105258,28.046262 91.9590814,27.5417631 92.2370364,26.5466671 L93.9261824,21.5084047 C95.4927549,21.6308298 96.9964458,22.1985592 97.9264558,22.6200961 L91.9973571,40.3102939 L92.7359883,40.5502112 L93.3866764,40.7609796 L94.1248519,41 L94.3686321,40.27397 L99.9874237,23.5147408 L100.243962,23.5977028 L104,12.3933428 L103.323795,11.9875014 C103.316048,11.9825686 102.170965,11.2915172 100.517361,10.7228909 C99.1234849,10.2430564 97.7956803,10 96.5713114,10 Z M96.5713114,10.765493 C97.9364805,10.765493 99.2642851,11.102274 100.260822,11.4453333 C101.799599,11.9744966 102.873599,12.6130801 102.91871,12.6404351 L103.068167,12.7301238 L99.7486558,22.6326525 L99.492117,22.5501389 L99.4306024,22.7331038 L93.6304566,40.0340528 L92.9793129,39.8228359 L98.720678,22.6931923 L98.8778821,22.2259142 C97.8690422,21.7106527 95.6531486,20.7317006 93.3720951,20.7191442 L91.4911146,26.3296204 C91.3284425,26.983451 89.7746286,27.2812175 87.9305568,27.2812175 C86.9604484,27.2812175 85.9101431,27.1987039 84.9404903,27.0421971 L87.1782557,17.3244271 L87.1768887,17.3244271 L87.2789574,16.9010965 C88.450925,17.1715079 89.8694067,17.3230818 91.194933,17.3230818 C91.24779,17.3230818 91.300647,17.3230818 91.3535041,17.3226334 L91.424132,17.3208396 L92.7628725,13.0081588 C92.7469243,12.8332658 92.7555819,12.6606151 92.794769,12.4924488 L92.79887,12.4780986 C92.9692883,11.780769 93.6227103,11.2919656 94.7969562,10.9825396 C95.3792946,10.8287235 95.9789483,10.765493 96.5713114,10.765493 Z" id="Fill-396" fill="#FFFFFE"></path>
                <path d="M23.0002326,18 C34.0274634,18 43,23.8298981 43,30.9992943 C43,38.1672789 34.0274634,44 23.0002326,44 C11.9725366,44 3,38.1672789 3,30.9992943 C3,23.8298981 11.9725366,18 23.0002326,18" id="Fill-493" fill="#FFFFFE"></path>
                <path d="M21.4983708,18 C22.0043445,18 22.5019395,18.0125 23,18.039 L20,18.039 C20.4957331,18.0125 20.9951901,18 21.4983708,18" id="Fill-494" fill="#319745"></path>
                <polyline id="Fill-495" fill="#319745" points="23 18 21.4843968 21 20 18 23 18"></polyline>
                <polyline id="Fill-496" fill="#319745" points="35.0296376 20 37 21.4850127 33 23 35.0296376 20"></polyline>
                <polyline id="Fill-497" fill="#319745" points="45 30 45 31 39 30.4945639 45 30"></polyline>
                <polyline id="Fill-498" fill="#319745" points="33 39 37 40.5217172 35.0200305 42 33 39"></polyline>
                <polyline id="Fill-499" fill="#2C7F3F" points="37 40 37 40.3813953 36 41 36 40.6188161 37 40"></polyline>
                <polyline id="Fill-500" fill="#319745" points="21.5174934 42 23 45 20 45 21.5174934 42"></polyline>
                <polygon id="Fill-501" fill="#2B713A" points="20 45 23 45 23 44 20 44"></polygon>
                <polyline id="Fill-502" fill="#319745" points="13 39 10.9718676 42 9 40.5124429 13 39"></polyline>
                <polyline id="Fill-503" fill="#21552E" points="10 40.6187157 10 41 9 40.3814956 9 40 10 40.6187157"></polyline>
                <polyline id="Fill-504" fill="#319745" points="3 30 7 30.5054361 3 31 3 30"></polyline>
                <polyline id="Fill-505" fill="#319745" points="10.9825936 20 13 23 9 21.4775366 10.9825936 20"></polyline>
                <polyline id="Fill-506" fill="#8E8974" points="15 37 21.0864063 30.1816637 31 26 24.9135937 32.820673 15 37"></polyline>
                <path d="M46.9928691,30.3201571 C46.7991357,36.7063209 41.2777331,41.1235186 36.0983766,43.3456998 C30.5232107,45.7376614 24.2162145,46.3226757 18.2795364,45.4170192 C15.3865124,44.9746203 12.5333475,44.1567645 9.87206202,42.8790466 C7.27659031,41.6338296 4.80811133,39.9345716 2.93427346,37.654665 C1.17676833,35.5188291 0,32.8532788 0,30 C0,32.6034593 0,35.2064334 0,37.8094076 C0,38.5511049 0.0315164421,39.2884363 0.156191779,40.0194617 C0.412958087,41.5154685 0.982107954,42.937257 1.76538424,44.2130345 C3.28929691,46.6957072 5.54133209,48.6161647 7.97505029,50.059297 C13.1011069,53.0969087 19.2013924,54.2193989 25.0416672,53.9652136 C30.951927,53.7086028 37.1889382,51.9977027 41.8654221,48.0534643 C44.0266157,46.2305093 45.8712546,43.8497047 46.6253318,41.0090382 C47.0202143,39.5227331 46.9998213,38.0344877 46.9998213,36.510831 C46.9998213,34.340554 46.9998213,32.1697919 47,30 C46.9998213,30.1072041 46.9961135,30.2139231 46.9928691,30.3201571 C46.9905517,30.4113534 46.9961135,30.2139231 46.9928691,30.3201571" id="Fill-507" fill="#615F6D"></path>
                <path d="M25.6172234,20.1139372 C28.746773,20.3261464 31.8682421,20.9935011 34.762505,22.2293076 C37.5721599,23.4295858 40.2915027,25.2059975 42.0982187,27.7304227 C43.2613426,29.3560795 44,31.2885275 44,33.3088357 C44,30.7315984 44,34.2402516 44,31.6639745 C44,30.9121202 43.9600726,30.1655471 43.7970356,29.4285763 C43.4814188,27.9896828 42.8140604,26.644411 41.9266259,25.4777405 C40.0956682,23.0531785 37.4419205,21.3391812 34.6807489,20.173471 C28.9530647,17.75323 22.2737769,17.4027488 16.2618475,18.8805313 C13.355226,19.5944568 10.5122983,20.7697693 8.08955923,22.5596241 C5.74810095,24.2894651 3.73271664,26.713547 3.17135606,29.6508678 C2.92466162,30.9486087 3.01687495,32.3274883 3.01687495,33.6429932 C3.01687495,35.2566472 3.01687495,30.7829703 3.01687495,32.3966243 C3.01687495,32.6995745 3.01687495,33.0044452 3.01687495,33.3088357 C3.01687495,30.1684278 4.76750241,27.4188305 7.05429814,25.4134056 C9.33586527,23.4127819 12.1707124,22.0723112 15.0578455,21.2263551 C18.4721157,20.2282037 22.0717632,19.8772424 25.6172234,20.1139372 C25.6590522,20.1153776 25.3781342,20.0976135 25.6172234,20.1139372" id="Fill-508" fill="#615F6D"></path>
                <path d="M23.4993048,43.7184369 C34.4842171,43.7184369 43.4224067,38.012458 43.4224067,31.0002301 C43.4224067,23.9866215 34.4842171,18.2834042 23.4993048,18.2834042 C12.5143925,18.2834042 3.57666631,23.9866215 3.57666631,31.0002301 C3.57666631,38.012458 12.5143925,43.7184369 23.4993048,43.7184369 M23.4993048,16 C36.4785666,16 47,22.7162736 47,31.0002301 C47,39.2851072 36.4785666,46 23.4993048,46 C10.5214334,46 0,39.2851072 0,31.0002301 C0,22.7162736 10.5214334,16 23.4993048,16" id="Fill-509" fill="#8E8F9C"></path>
                <polyline id="Fill-510" fill="#BA594F" points="31 25 24.9144665 31.8214301 15 36 21.0872791 29.181374 31 25"></polyline>
            </g>
        </g>
    </g>
</svg>